<svg width="302" height="57" viewBox="0 0 302 57" fill="none" xmlns="http://www.w3.org/2000/svg">
<g filter="url(#filter0_i)">
<path d="M271 0L277.96 19.693H300.483L282.261 31.864L289.221 51.557L271 39.386L252.779 51.557L259.739 31.864L241.517 19.693H264.04L271 0Z" fill="#1E222E"/>
</g>
<path d="M271 3.001L277.017 20.0262L277.253 20.693H277.96H297.185L281.706 31.0324L281.06 31.4642L281.319 32.1972L287.277 49.0555L271.555 38.5545L271 38.1835L270.445 38.5545L254.723 49.0555L260.681 32.1972L260.94 31.4642L260.294 31.0324L244.815 20.693H264.04H264.747L264.983 20.0262L271 3.001Z" stroke="#E34647" stroke-width="2"/>
<g filter="url(#filter1_i)">
<path d="M211 0L217.96 19.693H240.483L222.261 31.864L229.221 51.557L211 39.386L192.779 51.557L199.739 31.864L181.517 19.693H204.04L211 0Z" fill="#1E222E"/>
</g>
<path d="M211 3.001L217.017 20.0262L217.253 20.693H217.96H237.185L221.706 31.0324L221.06 31.4642L221.319 32.1972L227.277 49.0555L211.555 38.5545L211 38.1835L210.445 38.5545L194.723 49.0555L200.681 32.1972L200.94 31.4642L200.294 31.0324L184.815 20.693H204.04H204.747L204.983 20.0262L211 3.001Z" stroke="#E34647" stroke-width="2"/>
<g filter="url(#filter2_i)">
<path d="M151 0L157.96 19.693H180.483L162.261 31.864L169.221 51.557L151 39.386L132.779 51.557L139.739 31.864L121.517 19.693H144.04L151 0Z" fill="#FFD700"/>
</g>
<path d="M151 3.001L157.017 20.0262L157.253 20.693H157.96H177.185L161.706 31.0324L161.06 31.4642L161.319 32.1972L167.277 49.0555L151.555 38.5545L151 38.1835L150.445 38.5545L134.723 49.0555L140.681 32.1972L140.94 31.4642L140.294 31.0324L124.815 20.693H144.04H144.747L144.983 20.0262L151 3.001Z" stroke="#E34647" stroke-width="2"/>
<g filter="url(#filter3_i)">
<path d="M91 0L97.9599 19.693H120.483L102.261 31.864L109.221 51.557L91 39.386L72.7787 51.557L79.7386 31.864L61.5172 19.693H84.0401L91 0Z" fill="#FFD700"/>
</g>
<path d="M91 3.001L97.0171 20.0262L97.2527 20.693H97.9599H117.185L101.706 31.0324L101.06 31.4642L101.319 32.1972L107.277 49.0555L91.5554 38.5545L91 38.1835L90.4446 38.5545L74.7234 49.0555L80.6814 32.1972L80.9405 31.4642L80.294 31.0324L64.8147 20.693H84.0401H84.7473L84.9829 20.0262L91 3.001Z" stroke="#E34647" stroke-width="2"/>
<g filter="url(#filter4_i)">
<path d="M31 0L37.9599 19.693H60.4827L42.2614 31.864L49.2213 51.557L31 39.386L12.7787 51.557L19.7386 31.864L1.51725 19.693H24.0401L31 0Z" fill="#FFD700"/>
</g>
<path d="M31 3.001L37.0171 20.0262L37.2527 20.693H37.9599H57.1853L41.706 31.0324L41.0595 31.4642L41.3186 32.1972L47.2766 49.0555L31.5554 38.5545L31 38.1835L30.4446 38.5545L14.7234 49.0555L20.6814 32.1972L20.9405 31.4642L20.294 31.0324L4.81474 20.693H24.0401H24.7473L24.9829 20.0262L31 3.001Z" stroke="#E34647" stroke-width="2"/>
<defs>
<filter id="filter0_i" x="241.517" y="0" width="58.9655" height="55.557" filterUnits="userSpaceOnUse" color-interpolation-filters="sRGB">
<feFlood flood-opacity="0" result="BackgroundImageFix"/>
<feBlend mode="normal" in="SourceGraphic" in2="BackgroundImageFix" result="shape"/>
<feColorMatrix in="SourceAlpha" type="matrix" values="0 0 0 0 0 0 0 0 0 0 0 0 0 0 0 0 0 0 127 0" result="hardAlpha"/>
<feOffset dy="4"/>
<feGaussianBlur stdDeviation="2"/>
<feComposite in2="hardAlpha" operator="arithmetic" k2="-1" k3="1"/>
<feColorMatrix type="matrix" values="0 0 0 0 0 0 0 0 0 0 0 0 0 0 0 0 0 0 0.25 0"/>
<feBlend mode="normal" in2="shape" result="effect1_innerShadow"/>
</filter>
<filter id="filter1_i" x="181.517" y="0" width="58.9655" height="55.557" filterUnits="userSpaceOnUse" color-interpolation-filters="sRGB">
<feFlood flood-opacity="0" result="BackgroundImageFix"/>
<feBlend mode="normal" in="SourceGraphic" in2="BackgroundImageFix" result="shape"/>
<feColorMatrix in="SourceAlpha" type="matrix" values="0 0 0 0 0 0 0 0 0 0 0 0 0 0 0 0 0 0 127 0" result="hardAlpha"/>
<feOffset dy="4"/>
<feGaussianBlur stdDeviation="2"/>
<feComposite in2="hardAlpha" operator="arithmetic" k2="-1" k3="1"/>
<feColorMatrix type="matrix" values="0 0 0 0 0 0 0 0 0 0 0 0 0 0 0 0 0 0 0.25 0"/>
<feBlend mode="normal" in2="shape" result="effect1_innerShadow"/>
</filter>
<filter id="filter2_i" x="121.517" y="0" width="58.9655" height="55.557" filterUnits="userSpaceOnUse" color-interpolation-filters="sRGB">
<feFlood flood-opacity="0" result="BackgroundImageFix"/>
<feBlend mode="normal" in="SourceGraphic" in2="BackgroundImageFix" result="shape"/>
<feColorMatrix in="SourceAlpha" type="matrix" values="0 0 0 0 0 0 0 0 0 0 0 0 0 0 0 0 0 0 127 0" result="hardAlpha"/>
<feOffset dy="4"/>
<feGaussianBlur stdDeviation="2"/>
<feComposite in2="hardAlpha" operator="arithmetic" k2="-1" k3="1"/>
<feColorMatrix type="matrix" values="0 0 0 0 0 0 0 0 0 0 0 0 0 0 0 0 0 0 0.25 0"/>
<feBlend mode="normal" in2="shape" result="effect1_innerShadow"/>
</filter>
<filter id="filter3_i" x="61.5172" y="0" width="58.9655" height="55.557" filterUnits="userSpaceOnUse" color-interpolation-filters="sRGB">
<feFlood flood-opacity="0" result="BackgroundImageFix"/>
<feBlend mode="normal" in="SourceGraphic" in2="BackgroundImageFix" result="shape"/>
<feColorMatrix in="SourceAlpha" type="matrix" values="0 0 0 0 0 0 0 0 0 0 0 0 0 0 0 0 0 0 127 0" result="hardAlpha"/>
<feOffset dy="4"/>
<feGaussianBlur stdDeviation="2"/>
<feComposite in2="hardAlpha" operator="arithmetic" k2="-1" k3="1"/>
<feColorMatrix type="matrix" values="0 0 0 0 0 0 0 0 0 0 0 0 0 0 0 0 0 0 0.25 0"/>
<feBlend mode="normal" in2="shape" result="effect1_innerShadow"/>
</filter>
<filter id="filter4_i" x="1.51727" y="0" width="58.9655" height="55.557" filterUnits="userSpaceOnUse" color-interpolation-filters="sRGB">
<feFlood flood-opacity="0" result="BackgroundImageFix"/>
<feBlend mode="normal" in="SourceGraphic" in2="BackgroundImageFix" result="shape"/>
<feColorMatrix in="SourceAlpha" type="matrix" values="0 0 0 0 0 0 0 0 0 0 0 0 0 0 0 0 0 0 127 0" result="hardAlpha"/>
<feOffset dy="4"/>
<feGaussianBlur stdDeviation="2"/>
<feComposite in2="hardAlpha" operator="arithmetic" k2="-1" k3="1"/>
<feColorMatrix type="matrix" values="0 0 0 0 0 0 0 0 0 0 0 0 0 0 0 0 0 0 0.25 0"/>
<feBlend mode="normal" in2="shape" result="effect1_innerShadow"/>
</filter>
</defs>
</svg>
