<svg width="330" height="124" viewBox="0 0 330 124" fill="none" xmlns="http://www.w3.org/2000/svg">
<path d="M14.3965 90.423L24.1172 115.63H20.5137L18.2812 109.829H6.9082L4.67578 115.63H1.07227L10.793 90.423H14.3965ZM8.2793 106.226H16.8926L12.6035 95.1163L8.2793 106.226ZM44.6484 115.63H41.1855V100.372H31.5352V115.63H28.0898V96.9093H31.5352V100.214C31.5586 99.757 31.6641 99.3292 31.8516 98.9308C32.0391 98.5206 32.2852 98.1691 32.5898 97.8761C32.9062 97.5714 33.2695 97.337 33.6797 97.173C34.0898 96.9972 34.5293 96.9093 34.998 96.9093H41.1855C41.666 96.9093 42.1172 97.0031 42.5391 97.1906C42.9609 97.3663 43.3242 97.6124 43.6289 97.9288C43.9453 98.2335 44.1914 98.5968 44.3672 99.0187C44.5547 99.4406 44.6484 99.8917 44.6484 100.372V115.63ZM51.6797 123.189L55.5996 113.943L48.252 96.9093H51.8906L57.3574 109.794L62.8242 96.9093H66.4629L55.125 123.189H51.6797ZM73.9512 115.63L67.9043 96.9093H71.4023L75.832 111.025L79.9629 96.9093H83.4961L87.627 111.025L92.0566 96.9093H95.5547L89.5078 115.63H85.9043L81.7207 101.884L77.5547 115.63H73.9512ZM115.734 115.63H112.271V100.372H102.621V115.63H99.1758V89.7023H102.621V100.214C102.645 99.757 102.75 99.3292 102.938 98.9308C103.125 98.5206 103.371 98.1691 103.676 97.8761C103.992 97.5714 104.355 97.337 104.766 97.173C105.176 96.9972 105.615 96.9093 106.084 96.9093H112.271C112.752 96.9093 113.203 97.0031 113.625 97.1906C114.047 97.3663 114.41 97.6124 114.715 97.9288C115.031 98.2335 115.277 98.5968 115.453 99.0187C115.641 99.4406 115.734 99.8917 115.734 100.372V115.63ZM137.338 108.036H124.945V112.167H137.338V115.63H124.945C124.477 115.63 124.031 115.542 123.609 115.366C123.188 115.179 122.818 114.933 122.502 114.628C122.197 114.312 121.951 113.943 121.764 113.521C121.588 113.099 121.5 112.648 121.5 112.167V100.372C121.5 99.8917 121.588 99.4406 121.764 99.0187C121.951 98.5968 122.197 98.2335 122.502 97.9288C122.818 97.6124 123.188 97.3663 123.609 97.1906C124.031 97.0031 124.477 96.9093 124.945 96.9093H133.875C134.355 96.9093 134.807 97.0031 135.229 97.1906C135.65 97.3663 136.014 97.6124 136.318 97.9288C136.635 98.2335 136.881 98.5968 137.057 99.0187C137.244 99.4406 137.338 99.8917 137.338 100.372V108.036ZM124.945 100.372V104.573H133.875V100.372H124.945ZM146.566 100.372V115.63H143.121V96.9093H146.566V100.214C146.59 99.757 146.695 99.3292 146.883 98.9308C147.07 98.5206 147.316 98.1691 147.621 97.8761C147.938 97.5714 148.301 97.337 148.711 97.173C149.121 96.9972 149.561 96.9093 150.029 96.9093H153.703C154.184 96.9093 154.629 97.0031 155.039 97.1906C155.461 97.3663 155.83 97.6124 156.146 97.9288C156.463 98.2335 156.709 98.5968 156.885 99.0187C157.072 99.4406 157.166 99.8917 157.166 100.372V103.536H153.703V100.372H146.566ZM177.311 108.036H164.918V112.167H177.311V115.63H164.918C164.449 115.63 164.004 115.542 163.582 115.366C163.16 115.179 162.791 114.933 162.475 114.628C162.17 114.312 161.924 113.943 161.736 113.521C161.561 113.099 161.473 112.648 161.473 112.167V100.372C161.473 99.8917 161.561 99.4406 161.736 99.0187C161.924 98.5968 162.17 98.2335 162.475 97.9288C162.791 97.6124 163.16 97.3663 163.582 97.1906C164.004 97.0031 164.449 96.9093 164.918 96.9093H173.848C174.328 96.9093 174.779 97.0031 175.201 97.1906C175.623 97.3663 175.986 97.6124 176.291 97.9288C176.607 98.2335 176.854 98.5968 177.029 99.0187C177.217 99.4406 177.311 99.8917 177.311 100.372V108.036ZM164.918 100.372V104.573H173.848V100.372H164.918ZM194.238 90.423H212.607V94.0265H197.842V101.234H210.445V104.837H197.842V115.63H194.238V90.423ZM220.939 96.9093V115.63H217.477V96.9093H220.939ZM217.301 89.7023H221.115V93.3058H217.301V89.7023ZM225.809 96.9093H230.379V91.1437H233.842V96.9093H239.994V100.372H233.842V112.167H239.994V115.63H233.842C233.373 115.63 232.928 115.542 232.506 115.366C232.084 115.179 231.715 114.933 231.398 114.628C231.082 114.312 230.83 113.943 230.643 113.521C230.467 113.099 230.379 112.648 230.379 112.167V100.372H225.809V96.9093ZM262.336 115.63H258.873V100.372H249.223V115.63H245.777V96.9093H249.223V100.214C249.246 99.757 249.352 99.3292 249.539 98.9308C249.727 98.5206 249.973 98.1691 250.277 97.8761C250.594 97.5714 250.957 97.337 251.367 97.173C251.777 96.9972 252.217 96.9093 252.686 96.9093H258.873C259.354 96.9093 259.805 97.0031 260.227 97.1906C260.648 97.3663 261.012 97.6124 261.316 97.9288C261.633 98.2335 261.879 98.5968 262.055 99.0187C262.242 99.4406 262.336 99.8917 262.336 100.372V115.63ZM283.939 108.036H271.547V112.167H283.939V115.63H271.547C271.078 115.63 270.633 115.542 270.211 115.366C269.789 115.179 269.42 114.933 269.104 114.628C268.799 114.312 268.553 113.943 268.365 113.521C268.189 113.099 268.102 112.648 268.102 112.167V100.372C268.102 99.8917 268.189 99.4406 268.365 99.0187C268.553 98.5968 268.799 98.2335 269.104 97.9288C269.42 97.6124 269.789 97.3663 270.211 97.1906C270.633 97.0031 271.078 96.9093 271.547 96.9093H280.477C280.957 96.9093 281.408 97.0031 281.83 97.1906C282.252 97.3663 282.615 97.6124 282.92 97.9288C283.236 98.2335 283.482 98.5968 283.658 99.0187C283.846 99.4406 283.939 99.8917 283.939 100.372V108.036ZM271.547 100.372V104.573H280.477V100.372H271.547ZM301.025 112.167V107.825H292.816C292.336 107.825 291.885 107.737 291.463 107.562C291.041 107.374 290.672 107.128 290.355 106.823C290.051 106.507 289.805 106.138 289.617 105.716C289.441 105.294 289.354 104.843 289.354 104.362V100.372C289.354 99.8917 289.441 99.4406 289.617 99.0187C289.805 98.5968 290.051 98.2335 290.355 97.9288C290.672 97.6124 291.041 97.3663 291.463 97.1906C291.885 97.0031 292.336 96.9093 292.816 96.9093H303.768V100.372H292.816V104.362H301.025C301.506 104.362 301.951 104.456 302.361 104.644C302.783 104.819 303.152 105.066 303.469 105.382C303.785 105.687 304.031 106.05 304.207 106.472C304.395 106.894 304.488 107.345 304.488 107.825V112.167C304.488 112.648 304.395 113.099 304.207 113.521C304.031 113.943 303.785 114.312 303.469 114.628C303.152 114.933 302.783 115.179 302.361 115.366C301.951 115.542 301.506 115.63 301.025 115.63H289.354V112.167H301.025ZM321.205 112.167V107.825H312.996C312.516 107.825 312.064 107.737 311.643 107.562C311.221 107.374 310.852 107.128 310.535 106.823C310.23 106.507 309.984 106.138 309.797 105.716C309.621 105.294 309.533 104.843 309.533 104.362V100.372C309.533 99.8917 309.621 99.4406 309.797 99.0187C309.984 98.5968 310.23 98.2335 310.535 97.9288C310.852 97.6124 311.221 97.3663 311.643 97.1906C312.064 97.0031 312.516 96.9093 312.996 96.9093H323.947V100.372H312.996V104.362H321.205C321.686 104.362 322.131 104.456 322.541 104.644C322.963 104.819 323.332 105.066 323.648 105.382C323.965 105.687 324.211 106.05 324.387 106.472C324.574 106.894 324.668 107.345 324.668 107.825V112.167C324.668 112.648 324.574 113.099 324.387 113.521C324.211 113.943 323.965 114.312 323.648 114.628C323.332 114.933 322.963 115.179 322.541 115.366C322.131 115.542 321.686 115.63 321.205 115.63H309.533V112.167H321.205Z" fill="#FF4B4B"/>
<path d="M212.76 42.0574C212.76 64.2562 191.817 82.6148 165.5 82.6148C139.183 82.6148 118.24 64.2562 118.24 42.0574C118.24 19.8587 139.183 1.5 165.5 1.5C191.817 1.5 212.76 19.8587 212.76 42.0574Z" stroke="#FF4B4B" stroke-width="3"/>
<path d="M176.466 47.808L163.026 47.744L160.146 58.56C159.506 60.992 158.887 62.9973 158.29 64.576C157.693 66.1547 156.903 67.7547 155.922 69.376C153.874 72.6187 150.845 74.24 146.834 74.24V73.472C150.034 73.472 152.53 72.384 154.322 70.208C156.114 68.0747 157.543 65.1307 158.61 61.376L159.25 60.032L159.122 59.968C157.671 63.2107 155.367 64.832 152.21 64.832C150.119 64.832 148.391 64.128 147.026 62.72C145.661 61.312 144.978 59.5413 144.978 57.408C144.978 50.4533 150.781 46.976 162.386 46.976L168.786 22.784L166.802 22.72C166.631 22.72 166.461 22.72 166.29 22.72C163.943 22.72 162.045 23.2747 160.594 24.384C159.143 25.4507 158.418 26.88 158.418 28.672C158.418 29.5253 158.546 30.2293 158.802 30.784L158.29 31.168C157.821 30.656 157.586 29.7813 157.586 28.544C157.586 27.264 158.034 26.0693 158.93 24.96C159.826 23.808 160.978 23.04 162.386 22.656C162.77 22.5707 163.261 22.4853 163.858 22.4V22.272L162.386 22.336C158.29 21.824 154.962 20.672 152.402 18.88C149.842 17.0453 148.562 14.4213 148.562 11.008L149.33 10.944C149.33 12.9067 149.821 14.6133 150.802 16.064C151.783 17.472 153.127 18.5813 154.834 19.392C158.077 20.928 161.917 21.7813 166.354 21.952L177.362 22.464V57.152C177.362 59.712 176.893 61.632 175.954 62.912C175.015 64.1493 173.415 64.768 171.154 64.768C170.002 64.768 169.042 64.64 168.274 64.384L168.402 63.744C169.341 63.9573 170.194 64.064 170.962 64.064C173.095 64.064 174.546 63.5093 175.314 62.4C176.082 61.2907 176.466 59.5413 176.466 57.152V47.808ZM166.29 46.976L176.466 47.04V23.168L169.618 22.848L163.218 46.976H166.29ZM145.874 57.408C145.874 59.2853 146.471 60.864 147.666 62.144C148.861 63.424 150.375 64.064 152.21 64.064C155.154 64.064 157.33 62.5067 158.738 59.392C159.506 57.6427 160.167 55.5947 160.722 53.248L162.194 47.744C151.314 47.8293 145.874 51.0507 145.874 57.408ZM179.026 57.152V25.28C179.026 22.72 179.495 20.8213 180.434 19.584C181.373 18.304 182.973 17.664 185.234 17.664C186.386 17.664 187.346 17.792 188.114 18.048L187.986 18.688C187.047 18.4747 186.194 18.368 185.426 18.368C183.293 18.368 181.842 18.9227 181.074 20.032C180.306 21.1413 179.922 22.8907 179.922 25.28V57.152C179.922 59.5413 180.306 61.2907 181.074 62.4C181.842 63.5093 183.293 64.064 185.426 64.064C186.194 64.064 187.047 63.9573 187.986 63.744L188.114 64.384C187.346 64.64 186.386 64.768 185.234 64.768C182.973 64.768 181.373 64.1493 180.434 62.912C179.495 61.632 179.026 59.712 179.026 57.152Z" fill="#FF4B4B"/>
<path d="M176.466 47.808H177.466V46.8127L176.471 46.808L176.466 47.808ZM163.026 47.744L163.031 46.744L162.258 46.7403L162.06 47.4867L163.026 47.744ZM160.146 58.56L159.18 58.3027L159.179 58.3055L160.146 58.56ZM158.29 64.576L157.355 64.2221L157.355 64.2221L158.29 64.576ZM155.922 69.376L156.767 69.91L156.772 69.9019L156.777 69.8938L155.922 69.376ZM146.834 74.24H145.834V75.24H146.834V74.24ZM146.834 73.472V72.472H145.834V73.472H146.834ZM154.322 70.208L153.556 69.5648L153.55 69.5723L154.322 70.208ZM158.61 61.376L157.707 60.9461L157.671 61.0219L157.648 61.1027L158.61 61.376ZM159.25 60.032L160.153 60.4619L160.574 59.5763L159.697 59.1376L159.25 60.032ZM159.122 59.968L159.569 59.0736L158.635 58.6067L158.209 59.5596L159.122 59.968ZM147.026 62.72L147.744 62.0239L147.744 62.0239L147.026 62.72ZM162.386 46.976V47.976H163.156L163.353 47.2318L162.386 46.976ZM168.786 22.784L169.753 23.0397L170.074 21.825L168.818 21.7845L168.786 22.784ZM166.802 22.72L166.834 21.7205L166.818 21.72H166.802V22.72ZM160.594 24.384L161.186 25.1897L161.194 25.1841L161.201 25.1784L160.594 24.384ZM158.802 30.784L159.402 31.584L160.049 31.0989L159.71 30.3649L158.802 30.784ZM158.29 31.168L157.553 31.8437L158.165 32.5117L158.89 31.968L158.29 31.168ZM158.93 24.96L159.708 25.5883L159.714 25.5812L159.719 25.5739L158.93 24.96ZM162.386 22.656L162.169 21.6798L162.146 21.685L162.123 21.6912L162.386 22.656ZM163.858 22.4L163.999 23.3899L164.858 23.2673V22.4H163.858ZM163.858 22.272H164.858V21.2276L163.814 21.2729L163.858 22.272ZM162.386 22.336L162.262 23.3283L162.345 23.3387L162.429 23.3351L162.386 22.336ZM152.402 18.88L151.819 19.6929L151.828 19.6992L152.402 18.88ZM148.562 11.008L148.479 10.0114L147.562 10.0879V11.008H148.562ZM149.33 10.944H150.33V9.8572L149.247 9.94745L149.33 10.944ZM150.802 16.064L149.973 16.6244L149.981 16.6358L150.802 16.064ZM154.834 19.392L154.405 20.2953L154.406 20.2957L154.834 19.392ZM166.354 21.952L166.4 20.953L166.392 20.9527L166.354 21.952ZM177.362 22.464H178.362V21.5094L177.408 21.4651L177.362 22.464ZM175.954 62.912L176.751 63.5164L176.755 63.5099L176.76 63.5034L175.954 62.912ZM168.274 64.384L167.293 64.1879L167.12 65.0535L167.958 65.3327L168.274 64.384ZM168.402 63.744L168.623 62.7689L167.623 62.5414L167.421 63.5479L168.402 63.744ZM175.314 62.4L176.136 62.9692L176.136 62.9692L175.314 62.4ZM166.29 46.976L166.296 45.976H166.29V46.976ZM176.466 47.04L176.46 48.04L177.466 48.0463V47.04H176.466ZM176.466 23.168H177.466V22.2136L176.513 22.1691L176.466 23.168ZM169.618 22.848L169.665 21.8491L168.858 21.8114L168.651 22.5916L169.618 22.848ZM163.218 46.976L162.251 46.7196L161.918 47.976H163.218V46.976ZM147.666 62.144L146.935 62.8263L146.935 62.8263L147.666 62.144ZM158.738 59.392L159.649 59.8039L159.653 59.794L158.738 59.392ZM160.722 53.248L159.756 52.9896L159.752 53.0038L159.749 53.018L160.722 53.248ZM162.194 47.744L163.16 48.0024L163.499 46.7337L162.186 46.744L162.194 47.744ZM180.434 19.584L181.231 20.1884L181.235 20.1819L181.24 20.1754L180.434 19.584ZM188.114 18.048L189.094 18.2441L189.268 17.3785L188.43 17.0993L188.114 18.048ZM187.986 18.688L187.764 19.6631L188.765 19.8906L188.966 18.8841L187.986 18.688ZM181.074 20.032L180.252 19.4628L180.252 19.4628L181.074 20.032ZM181.074 62.4L180.252 62.9692L180.252 62.9692L181.074 62.4ZM187.986 63.744L188.966 63.5479L188.765 62.5414L187.764 62.7689L187.986 63.744ZM188.114 64.384L188.43 65.3327L189.268 65.0535L189.094 64.1879L188.114 64.384ZM180.434 62.912L179.627 63.5034L179.632 63.5099L179.637 63.5164L180.434 62.912ZM176.471 46.808L163.031 46.744L163.021 48.744L176.461 48.808L176.471 46.808ZM162.06 47.4867L159.18 58.3027L161.112 58.8173L163.992 48.0013L162.06 47.4867ZM159.179 58.3055C158.544 60.7184 157.935 62.6876 157.355 64.2221L159.225 64.9299C159.839 63.3071 160.468 61.2656 161.113 58.8145L159.179 58.3055ZM157.355 64.2221C156.781 65.7374 156.02 67.2827 155.066 68.8582L156.777 69.8938C157.786 68.2266 158.604 66.572 159.225 64.9299L157.355 64.2221ZM155.076 68.842C153.221 71.7789 150.52 73.24 146.834 73.24V75.24C151.169 75.24 154.526 73.4584 156.767 69.91L155.076 68.842ZM147.834 74.24V73.472H145.834V74.24H147.834ZM146.834 74.472C150.287 74.472 153.085 73.2833 155.094 70.8437L153.55 69.5723C151.975 71.4847 149.78 72.472 146.834 72.472V74.472ZM155.088 70.8512C156.999 68.5756 158.481 65.4889 159.572 61.6493L157.648 61.1027C156.605 64.7724 155.229 67.5737 153.556 69.5648L155.088 70.8512ZM159.513 61.8059L160.153 60.4619L158.347 59.6021L157.707 60.9461L159.513 61.8059ZM159.697 59.1376L159.569 59.0736L158.675 60.8624L158.803 60.9264L159.697 59.1376ZM158.209 59.5596C157.538 61.059 156.701 62.1149 155.73 62.7982C154.767 63.4762 153.608 63.832 152.21 63.832V65.832C153.969 65.832 155.541 65.3771 156.881 64.4338C158.214 63.4957 159.255 62.1197 160.035 60.3764L158.209 59.5596ZM152.21 63.832C150.37 63.832 148.907 63.2238 147.744 62.0239L146.308 63.4161C147.875 65.0322 149.869 65.832 152.21 65.832V63.832ZM147.744 62.0239C146.576 60.8196 145.978 59.3065 145.978 57.408H143.978C143.978 59.7762 144.745 61.8044 146.308 63.4161L147.744 62.0239ZM145.978 57.408C145.978 54.27 147.254 51.9936 149.844 50.4418C152.515 48.8411 156.65 47.976 162.386 47.976V45.976C156.516 45.976 151.947 46.8496 148.816 48.7262C145.603 50.6517 143.978 53.5913 143.978 57.408H145.978ZM163.353 47.2318L169.753 23.0397L167.819 22.5282L161.419 46.7202L163.353 47.2318ZM168.818 21.7845L166.834 21.7205L166.77 23.7195L168.754 23.7835L168.818 21.7845ZM166.802 21.72C166.802 21.72 166.801 21.72 166.801 21.72C166.801 21.72 166.8 21.72 166.8 21.72C166.8 21.72 166.799 21.72 166.799 21.72C166.799 21.72 166.798 21.72 166.798 21.72C166.798 21.72 166.797 21.72 166.797 21.72C166.797 21.72 166.796 21.72 166.796 21.72C166.796 21.72 166.795 21.72 166.795 21.72C166.795 21.72 166.794 21.72 166.794 21.72C166.794 21.72 166.793 21.72 166.793 21.72C166.793 21.72 166.792 21.72 166.792 21.72C166.792 21.72 166.791 21.72 166.791 21.72C166.791 21.72 166.79 21.72 166.79 21.72C166.79 21.72 166.789 21.72 166.789 21.72C166.789 21.72 166.788 21.72 166.788 21.72C166.788 21.72 166.787 21.72 166.787 21.72C166.787 21.72 166.786 21.72 166.786 21.72C166.786 21.72 166.785 21.72 166.785 21.72C166.785 21.72 166.784 21.72 166.784 21.72C166.784 21.72 166.783 21.72 166.783 21.72C166.783 21.72 166.782 21.72 166.782 21.72C166.782 21.72 166.781 21.72 166.781 21.72C166.781 21.72 166.78 21.72 166.78 21.72C166.78 21.72 166.779 21.72 166.779 21.72C166.779 21.72 166.778 21.72 166.778 21.72C166.778 21.72 166.777 21.72 166.777 21.72C166.777 21.72 166.776 21.72 166.776 21.72C166.776 21.72 166.775 21.72 166.775 21.72C166.775 21.72 166.774 21.72 166.774 21.72C166.774 21.72 166.773 21.72 166.773 21.72C166.773 21.72 166.772 21.72 166.772 21.72C166.772 21.72 166.771 21.72 166.771 21.72C166.771 21.72 166.77 21.72 166.77 21.72C166.77 21.72 166.769 21.72 166.769 21.72C166.769 21.72 166.768 21.72 166.768 21.72C166.768 21.72 166.767 21.72 166.767 21.72C166.767 21.72 166.766 21.72 166.766 21.72C166.766 21.72 166.765 21.72 166.765 21.72C166.765 21.72 166.764 21.72 166.764 21.72C166.764 21.72 166.763 21.72 166.763 21.72C166.763 21.72 166.762 21.72 166.762 21.72C166.762 21.72 166.761 21.72 166.761 21.72C166.761 21.72 166.76 21.72 166.76 21.72C166.76 21.72 166.759 21.72 166.759 21.72C166.759 21.72 166.758 21.72 166.758 21.72C166.758 21.72 166.757 21.72 166.757 21.72C166.757 21.72 166.756 21.72 166.756 21.72C166.756 21.72 166.755 21.72 166.755 21.72C166.755 21.72 166.754 21.72 166.754 21.72C166.754 21.72 166.753 21.72 166.753 21.72C166.753 21.72 166.752 21.72 166.752 21.72C166.752 21.72 166.751 21.72 166.751 21.72C166.751 21.72 166.75 21.72 166.75 21.72C166.75 21.72 166.749 21.72 166.749 21.72C166.749 21.72 166.748 21.72 166.748 21.72C166.748 21.72 166.747 21.72 166.747 21.72C166.747 21.72 166.746 21.72 166.746 21.72C166.746 21.72 166.745 21.72 166.745 21.72C166.745 21.72 166.744 21.72 166.744 21.72C166.744 21.72 166.743 21.72 166.743 21.72C166.743 21.72 166.742 21.72 166.742 21.72C166.742 21.72 166.741 21.72 166.741 21.72C166.741 21.72 166.74 21.72 166.74 21.72C166.74 21.72 166.739 21.72 166.739 21.72C166.739 21.72 166.738 21.72 166.738 21.72C166.738 21.72 166.737 21.72 166.737 21.72C166.737 21.72 166.736 21.72 166.736 21.72C166.736 21.72 166.735 21.72 166.735 21.72C166.735 21.72 166.734 21.72 166.734 21.72C166.734 21.72 166.733 21.72 166.733 21.72C166.733 21.72 166.732 21.72 166.732 21.72C166.732 21.72 166.731 21.72 166.731 21.72C166.731 21.72 166.73 21.72 166.73 21.72C166.73 21.72 166.729 21.72 166.729 21.72C166.729 21.72 166.728 21.72 166.728 21.72C166.728 21.72 166.727 21.72 166.727 21.72C166.727 21.72 166.726 21.72 166.726 21.72C166.726 21.72 166.725 21.72 166.725 21.72C166.725 21.72 166.724 21.72 166.724 21.72C166.724 21.72 166.723 21.72 166.723 21.72C166.723 21.72 166.722 21.72 166.722 21.72C166.722 21.72 166.721 21.72 166.721 21.72C166.721 21.72 166.72 21.72 166.72 21.72C166.72 21.72 166.719 21.72 166.719 21.72C166.719 21.72 166.718 21.72 166.718 21.72C166.718 21.72 166.717 21.72 166.717 21.72C166.717 21.72 166.716 21.72 166.716 21.72C166.716 21.72 166.715 21.72 166.715 21.72C166.715 21.72 166.714 21.72 166.714 21.72C166.714 21.72 166.713 21.72 166.713 21.72C166.713 21.72 166.712 21.72 166.712 21.72C166.712 21.72 166.711 21.72 166.711 21.72C166.711 21.72 166.71 21.72 166.71 21.72C166.71 21.72 166.709 21.72 166.709 21.72C166.709 21.72 166.708 21.72 166.708 21.72C166.708 21.72 166.707 21.72 166.707 21.72C166.707 21.72 166.706 21.72 166.706 21.72C166.706 21.72 166.705 21.72 166.705 21.72C166.705 21.72 166.704 21.72 166.704 21.72C166.704 21.72 166.703 21.72 166.703 21.72C166.703 21.72 166.702 21.72 166.702 21.72C166.702 21.72 166.701 21.72 166.701 21.72C166.701 21.72 166.7 21.72 166.7 21.72C166.7 21.72 166.699 21.72 166.699 21.72C166.699 21.72 166.698 21.72 166.698 21.72C166.698 21.72 166.697 21.72 166.697 21.72C166.697 21.72 166.696 21.72 166.696 21.72C166.696 21.72 166.695 21.72 166.695 21.72C166.695 21.72 166.694 21.72 166.694 21.72C166.694 21.72 166.693 21.72 166.693 21.72C166.693 21.72 166.692 21.72 166.692 21.72C166.692 21.72 166.691 21.72 166.691 21.72C166.691 21.72 166.69 21.72 166.69 21.72C166.69 21.72 166.689 21.72 166.689 21.72C166.689 21.72 166.688 21.72 166.688 21.72C166.688 21.72 166.687 21.72 166.687 21.72C166.687 21.72 166.686 21.72 166.686 21.72C166.686 21.72 166.685 21.72 166.685 21.72C166.685 21.72 166.684 21.72 166.684 21.72C166.684 21.72 166.683 21.72 166.683 21.72C166.683 21.72 166.682 21.72 166.682 21.72C166.682 21.72 166.681 21.72 166.681 21.72C166.681 21.72 166.68 21.72 166.68 21.72C166.68 21.72 166.679 21.72 166.679 21.72C166.679 21.72 166.678 21.72 166.678 21.72C166.678 21.72 166.677 21.72 166.677 21.72C166.677 21.72 166.676 21.72 166.676 21.72C166.676 21.72 166.675 21.72 166.675 21.72C166.675 21.72 166.674 21.72 166.674 21.72C166.674 21.72 166.673 21.72 166.673 21.72C166.673 21.72 166.672 21.72 166.672 21.72C166.672 21.72 166.671 21.72 166.671 21.72C166.671 21.72 166.67 21.72 166.67 21.72C166.67 21.72 166.669 21.72 166.669 21.72C166.669 21.72 166.668 21.72 166.668 21.72C166.668 21.72 166.667 21.72 166.667 21.72C166.667 21.72 166.666 21.72 166.666 21.72C166.666 21.72 166.665 21.72 166.665 21.72C166.665 21.72 166.664 21.72 166.664 21.72C166.664 21.72 166.663 21.72 166.663 21.72C166.663 21.72 166.662 21.72 166.662 21.72C166.662 21.72 166.661 21.72 166.661 21.72C166.661 21.72 166.66 21.72 166.66 21.72C166.66 21.72 166.659 21.72 166.659 21.72C166.659 21.72 166.658 21.72 166.658 21.72C166.658 21.72 166.657 21.72 166.657 21.72C166.657 21.72 166.656 21.72 166.656 21.72C166.656 21.72 166.655 21.72 166.655 21.72C166.655 21.72 166.654 21.72 166.654 21.72C166.654 21.72 166.653 21.72 166.653 21.72C166.653 21.72 166.652 21.72 166.652 21.72C166.652 21.72 166.651 21.72 166.651 21.72C166.651 21.72 166.65 21.72 166.65 21.72C166.65 21.72 166.649 21.72 166.649 21.72C166.649 21.72 166.648 21.72 166.648 21.72C166.648 21.72 166.647 21.72 166.647 21.72C166.647 21.72 166.646 21.72 166.646 21.72C166.646 21.72 166.645 21.72 166.645 21.72C166.645 21.72 166.644 21.72 166.644 21.72C166.644 21.72 166.643 21.72 166.643 21.72C166.643 21.72 166.642 21.72 166.642 21.72C166.642 21.72 166.641 21.72 166.641 21.72C166.641 21.72 166.64 21.72 166.64 21.72C166.64 21.72 166.639 21.72 166.639 21.72C166.639 21.72 166.638 21.72 166.638 21.72C166.638 21.72 166.637 21.72 166.637 21.72C166.637 21.72 166.636 21.72 166.636 21.72C166.636 21.72 166.635 21.72 166.635 21.72C166.635 21.72 166.634 21.72 166.634 21.72C166.634 21.72 166.633 21.72 166.633 21.72C166.633 21.72 166.632 21.72 166.632 21.72C166.632 21.72 166.631 21.72 166.631 21.72C166.631 21.72 166.63 21.72 166.63 21.72C166.63 21.72 166.629 21.72 166.629 21.72C166.629 21.72 166.628 21.72 166.628 21.72C166.628 21.72 166.627 21.72 166.627 21.72C166.627 21.72 166.626 21.72 166.626 21.72C166.626 21.72 166.625 21.72 166.625 21.72C166.625 21.72 166.624 21.72 166.624 21.72C166.624 21.72 166.623 21.72 166.623 21.72C166.623 21.72 166.622 21.72 166.622 21.72C166.622 21.72 166.621 21.72 166.621 21.72C166.621 21.72 166.62 21.72 166.62 21.72C166.62 21.72 166.619 21.72 166.619 21.72C166.619 21.72 166.618 21.72 166.618 21.72C166.618 21.72 166.617 21.72 166.617 21.72C166.617 21.72 166.616 21.72 166.616 21.72C166.616 21.72 166.615 21.72 166.615 21.72C166.615 21.72 166.614 21.72 166.614 21.72C166.614 21.72 166.613 21.72 166.613 21.72C166.613 21.72 166.612 21.72 166.612 21.72C166.612 21.72 166.611 21.72 166.611 21.72C166.611 21.72 166.61 21.72 166.61 21.72C166.61 21.72 166.609 21.72 166.609 21.72C166.609 21.72 166.608 21.72 166.608 21.72C166.608 21.72 166.607 21.72 166.607 21.72C166.607 21.72 166.606 21.72 166.606 21.72C166.606 21.72 166.605 21.72 166.605 21.72C166.605 21.72 166.604 21.72 166.604 21.72C166.604 21.72 166.603 21.72 166.603 21.72C166.603 21.72 166.602 21.72 166.602 21.72C166.602 21.72 166.601 21.72 166.601 21.72C166.601 21.72 166.6 21.72 166.6 21.72C166.6 21.72 166.599 21.72 166.599 21.72C166.599 21.72 166.598 21.72 166.598 21.72C166.598 21.72 166.597 21.72 166.597 21.72C166.597 21.72 166.596 21.72 166.596 21.72C166.596 21.72 166.595 21.72 166.595 21.72C166.595 21.72 166.594 21.72 166.594 21.72C166.594 21.72 166.593 21.72 166.593 21.72C166.593 21.72 166.592 21.72 166.592 21.72C166.592 21.72 166.591 21.72 166.591 21.72C166.591 21.72 166.59 21.72 166.59 21.72C166.59 21.72 166.589 21.72 166.589 21.72C166.589 21.72 166.588 21.72 166.588 21.72C166.588 21.72 166.587 21.72 166.587 21.72C166.587 21.72 166.586 21.72 166.586 21.72C166.586 21.72 166.585 21.72 166.585 21.72C166.585 21.72 166.584 21.72 166.584 21.72C166.584 21.72 166.583 21.72 166.583 21.72C166.583 21.72 166.582 21.72 166.582 21.72C166.582 21.72 166.581 21.72 166.581 21.72C166.581 21.72 166.58 21.72 166.58 21.72C166.58 21.72 166.579 21.72 166.579 21.72C166.579 21.72 166.578 21.72 166.578 21.72C166.578 21.72 166.577 21.72 166.577 21.72C166.577 21.72 166.576 21.72 166.576 21.72C166.576 21.72 166.575 21.72 166.575 21.72C166.575 21.72 166.574 21.72 166.574 21.72C166.574 21.72 166.573 21.72 166.573 21.72C166.573 21.72 166.572 21.72 166.572 21.72C166.572 21.72 166.571 21.72 166.571 21.72C166.571 21.72 166.57 21.72 166.57 21.72C166.57 21.72 166.569 21.72 166.569 21.72C166.569 21.72 166.568 21.72 166.568 21.72C166.568 21.72 166.567 21.72 166.567 21.72C166.567 21.72 166.566 21.72 166.566 21.72C166.566 21.72 166.565 21.72 166.565 21.72C166.565 21.72 166.564 21.72 166.564 21.72C166.564 21.72 166.563 21.72 166.563 21.72C166.563 21.72 166.562 21.72 166.562 21.72C166.562 21.72 166.561 21.72 166.561 21.72C166.561 21.72 166.56 21.72 166.56 21.72C166.56 21.72 166.559 21.72 166.559 21.72C166.559 21.72 166.558 21.72 166.558 21.72C166.558 21.72 166.557 21.72 166.557 21.72C166.557 21.72 166.556 21.72 166.556 21.72C166.556 21.72 166.555 21.72 166.555 21.72C166.555 21.72 166.554 21.72 166.554 21.72C166.554 21.72 166.553 21.72 166.553 21.72C166.553 21.72 166.552 21.72 166.552 21.72C166.552 21.72 166.551 21.72 166.551 21.72C166.551 21.72 166.55 21.72 166.55 21.72C166.55 21.72 166.549 21.72 166.549 21.72C166.549 21.72 166.548 21.72 166.548 21.72C166.548 21.72 166.547 21.72 166.547 21.72C166.547 21.72 166.546 21.72 166.546 21.72C166.546 21.72 166.545 21.72 166.545 21.72C166.545 21.72 166.544 21.72 166.544 21.72C166.544 21.72 166.543 21.72 166.543 21.72C166.543 21.72 166.542 21.72 166.542 21.72C166.542 21.72 166.541 21.72 166.541 21.72C166.541 21.72 166.54 21.72 166.54 21.72C166.54 21.72 166.539 21.72 166.539 21.72C166.539 21.72 166.538 21.72 166.538 21.72C166.538 21.72 166.537 21.72 166.537 21.72C166.537 21.72 166.536 21.72 166.536 21.72C166.536 21.72 166.535 21.72 166.535 21.72C166.535 21.72 166.534 21.72 166.534 21.72C166.534 21.72 166.533 21.72 166.533 21.72C166.533 21.72 166.532 21.72 166.532 21.72C166.532 21.72 166.531 21.72 166.531 21.72C166.531 21.72 166.53 21.72 166.53 21.72C166.53 21.72 166.529 21.72 166.529 21.72C166.529 21.72 166.528 21.72 166.528 21.72C166.528 21.72 166.527 21.72 166.527 21.72C166.527 21.72 166.526 21.72 166.526 21.72C166.526 21.72 166.525 21.72 166.525 21.72C166.525 21.72 166.524 21.72 166.524 21.72C166.524 21.72 166.523 21.72 166.523 21.72C166.523 21.72 166.522 21.72 166.522 21.72C166.522 21.72 166.521 21.72 166.521 21.72C166.521 21.72 166.52 21.72 166.52 21.72C166.52 21.72 166.519 21.72 166.519 21.72C166.519 21.72 166.518 21.72 166.518 21.72C166.518 21.72 166.517 21.72 166.517 21.72C166.517 21.72 166.516 21.72 166.516 21.72C166.516 21.72 166.515 21.72 166.515 21.72C166.515 21.72 166.514 21.72 166.514 21.72C166.514 21.72 166.513 21.72 166.513 21.72C166.513 21.72 166.512 21.72 166.512 21.72C166.512 21.72 166.511 21.72 166.511 21.72C166.511 21.72 166.51 21.72 166.51 21.72C166.51 21.72 166.509 21.72 166.509 21.72C166.509 21.72 166.508 21.72 166.508 21.72C166.508 21.72 166.507 21.72 166.507 21.72C166.507 21.72 166.506 21.72 166.506 21.72C166.506 21.72 166.505 21.72 166.505 21.72C166.505 21.72 166.504 21.72 166.504 21.72C166.504 21.72 166.503 21.72 166.503 21.72C166.503 21.72 166.502 21.72 166.502 21.72C166.502 21.72 166.501 21.72 166.501 21.72C166.501 21.72 166.5 21.72 166.5 21.72C166.5 21.72 166.499 21.72 166.499 21.72C166.499 21.72 166.498 21.72 166.498 21.72C166.498 21.72 166.497 21.72 166.497 21.72C166.497 21.72 166.496 21.72 166.496 21.72C166.496 21.72 166.495 21.72 166.495 21.72C166.495 21.72 166.494 21.72 166.494 21.72C166.494 21.72 166.493 21.72 166.493 21.72C166.493 21.72 166.492 21.72 166.492 21.72C166.492 21.72 166.491 21.72 166.491 21.72C166.491 21.72 166.49 21.72 166.49 21.72C166.49 21.72 166.489 21.72 166.489 21.72C166.489 21.72 166.488 21.72 166.488 21.72C166.488 21.72 166.487 21.72 166.487 21.72C166.487 21.72 166.486 21.72 166.486 21.72C166.486 21.72 166.485 21.72 166.485 21.72C166.485 21.72 166.484 21.72 166.484 21.72C166.484 21.72 166.483 21.72 166.483 21.72C166.483 21.72 166.482 21.72 166.482 21.72C166.482 21.72 166.481 21.72 166.481 21.72C166.481 21.72 166.48 21.72 166.48 21.72C166.48 21.72 166.479 21.72 166.479 21.72C166.479 21.72 166.478 21.72 166.478 21.72C166.478 21.72 166.477 21.72 166.477 21.72C166.477 21.72 166.476 21.72 166.476 21.72C166.476 21.72 166.475 21.72 166.475 21.72C166.475 21.72 166.474 21.72 166.474 21.72C166.474 21.72 166.473 21.72 166.473 21.72C166.473 21.72 166.472 21.72 166.472 21.72C166.472 21.72 166.471 21.72 166.471 21.72C166.471 21.72 166.47 21.72 166.47 21.72C166.47 21.72 166.469 21.72 166.469 21.72C166.469 21.72 166.468 21.72 166.468 21.72C166.468 21.72 166.467 21.72 166.467 21.72C166.467 21.72 166.466 21.72 166.466 21.72C166.466 21.72 166.465 21.72 166.465 21.72C166.465 21.72 166.464 21.72 166.464 21.72C166.464 21.72 166.463 21.72 166.463 21.72C166.463 21.72 166.462 21.72 166.462 21.72C166.462 21.72 166.461 21.72 166.461 21.72C166.461 21.72 166.46 21.72 166.46 21.72C166.46 21.72 166.459 21.72 166.459 21.72C166.459 21.72 166.458 21.72 166.458 21.72C166.458 21.72 166.457 21.72 166.457 21.72C166.457 21.72 166.456 21.72 166.456 21.72C166.456 21.72 166.455 21.72 166.455 21.72C166.455 21.72 166.454 21.72 166.454 21.72C166.454 21.72 166.453 21.72 166.453 21.72C166.453 21.72 166.452 21.72 166.452 21.72C166.452 21.72 166.451 21.72 166.451 21.72C166.451 21.72 166.45 21.72 166.45 21.72C166.45 21.72 166.449 21.72 166.449 21.72C166.449 21.72 166.448 21.72 166.448 21.72C166.448 21.72 166.447 21.72 166.447 21.72C166.447 21.72 166.446 21.72 166.446 21.72C166.446 21.72 166.445 21.72 166.445 21.72C166.445 21.72 166.444 21.72 166.444 21.72C166.444 21.72 166.443 21.72 166.443 21.72C166.443 21.72 166.442 21.72 166.442 21.72C166.442 21.72 166.441 21.72 166.441 21.72C166.441 21.72 166.44 21.72 166.44 21.72C166.44 21.72 166.439 21.72 166.439 21.72C166.439 21.72 166.438 21.72 166.438 21.72C166.438 21.72 166.437 21.72 166.437 21.72C166.437 21.72 166.436 21.72 166.436 21.72C166.436 21.72 166.435 21.72 166.435 21.72C166.435 21.72 166.434 21.72 166.434 21.72C166.434 21.72 166.433 21.72 166.433 21.72C166.433 21.72 166.432 21.72 166.432 21.72C166.432 21.72 166.431 21.72 166.431 21.72C166.431 21.72 166.43 21.72 166.43 21.72C166.43 21.72 166.429 21.72 166.429 21.72C166.429 21.72 166.428 21.72 166.428 21.72C166.428 21.72 166.427 21.72 166.427 21.72C166.427 21.72 166.426 21.72 166.426 21.72C166.426 21.72 166.425 21.72 166.425 21.72C166.425 21.72 166.424 21.72 166.424 21.72C166.424 21.72 166.423 21.72 166.423 21.72C166.423 21.72 166.422 21.72 166.422 21.72C166.422 21.72 166.421 21.72 166.421 21.72C166.421 21.72 166.42 21.72 166.42 21.72C166.42 21.72 166.419 21.72 166.419 21.72C166.419 21.72 166.418 21.72 166.418 21.72C166.418 21.72 166.417 21.72 166.417 21.72C166.417 21.72 166.416 21.72 166.416 21.72C166.416 21.72 166.415 21.72 166.415 21.72C166.415 21.72 166.414 21.72 166.414 21.72C166.414 21.72 166.413 21.72 166.413 21.72C166.413 21.72 166.412 21.72 166.412 21.72C166.412 21.72 166.411 21.72 166.411 21.72C166.411 21.72 166.41 21.72 166.41 21.72C166.41 21.72 166.409 21.72 166.409 21.72C166.409 21.72 166.408 21.72 166.408 21.72C166.408 21.72 166.407 21.72 166.407 21.72C166.407 21.72 166.406 21.72 166.406 21.72C166.406 21.72 166.405 21.72 166.405 21.72C166.405 21.72 166.404 21.72 166.404 21.72C166.404 21.72 166.403 21.72 166.403 21.72C166.403 21.72 166.402 21.72 166.402 21.72C166.402 21.72 166.401 21.72 166.401 21.72C166.401 21.72 166.4 21.72 166.4 21.72C166.4 21.72 166.399 21.72 166.399 21.72C166.399 21.72 166.398 21.72 166.398 21.72C166.398 21.72 166.397 21.72 166.397 21.72C166.397 21.72 166.396 21.72 166.396 21.72C166.396 21.72 166.395 21.72 166.395 21.72C166.395 21.72 166.394 21.72 166.394 21.72C166.394 21.72 166.393 21.72 166.393 21.72C166.393 21.72 166.392 21.72 166.392 21.72C166.392 21.72 166.391 21.72 166.391 21.72C166.391 21.72 166.39 21.72 166.39 21.72C166.39 21.72 166.389 21.72 166.389 21.72C166.389 21.72 166.388 21.72 166.388 21.72C166.388 21.72 166.387 21.72 166.387 21.72C166.387 21.72 166.386 21.72 166.386 21.72C166.386 21.72 166.385 21.72 166.385 21.72C166.385 21.72 166.384 21.72 166.384 21.72C166.384 21.72 166.383 21.72 166.383 21.72C166.383 21.72 166.382 21.72 166.382 21.72C166.382 21.72 166.381 21.72 166.381 21.72C166.381 21.72 166.38 21.72 166.38 21.72C166.38 21.72 166.379 21.72 166.379 21.72C166.379 21.72 166.378 21.72 166.378 21.72C166.378 21.72 166.377 21.72 166.377 21.72C166.377 21.72 166.376 21.72 166.376 21.72C166.376 21.72 166.375 21.72 166.375 21.72C166.375 21.72 166.374 21.72 166.374 21.72C166.374 21.72 166.373 21.72 166.373 21.72C166.373 21.72 166.372 21.72 166.372 21.72C166.372 21.72 166.371 21.72 166.371 21.72C166.371 21.72 166.37 21.72 166.37 21.72C166.37 21.72 166.369 21.72 166.369 21.72C166.369 21.72 166.368 21.72 166.368 21.72C166.368 21.72 166.367 21.72 166.367 21.72C166.367 21.72 166.366 21.72 166.366 21.72C166.366 21.72 166.365 21.72 166.365 21.72C166.365 21.72 166.364 21.72 166.364 21.72C166.364 21.72 166.363 21.72 166.363 21.72C166.363 21.72 166.362 21.72 166.362 21.72C166.362 21.72 166.361 21.72 166.361 21.72C166.361 21.72 166.36 21.72 166.36 21.72C166.36 21.72 166.359 21.72 166.359 21.72C166.359 21.72 166.358 21.72 166.358 21.72C166.358 21.72 166.357 21.72 166.357 21.72C166.357 21.72 166.356 21.72 166.356 21.72C166.356 21.72 166.355 21.72 166.355 21.72C166.355 21.72 166.354 21.72 166.354 21.72C166.354 21.72 166.353 21.72 166.353 21.72C166.353 21.72 166.352 21.72 166.352 21.72C166.352 21.72 166.351 21.72 166.351 21.72C166.351 21.72 166.35 21.72 166.35 21.72C166.35 21.72 166.349 21.72 166.349 21.72C166.349 21.72 166.348 21.72 166.348 21.72C166.348 21.72 166.347 21.72 166.347 21.72C166.347 21.72 166.346 21.72 166.346 21.72C166.346 21.72 166.345 21.72 166.345 21.72C166.345 21.72 166.344 21.72 166.344 21.72C166.344 21.72 166.343 21.72 166.343 21.72C166.343 21.72 166.342 21.72 166.342 21.72C166.342 21.72 166.341 21.72 166.341 21.72C166.341 21.72 166.34 21.72 166.34 21.72C166.34 21.72 166.339 21.72 166.339 21.72C166.339 21.72 166.338 21.72 166.338 21.72C166.338 21.72 166.337 21.72 166.337 21.72C166.337 21.72 166.336 21.72 166.336 21.72C166.336 21.72 166.335 21.72 166.335 21.72C166.335 21.72 166.334 21.72 166.334 21.72C166.334 21.72 166.333 21.72 166.333 21.72C166.333 21.72 166.332 21.72 166.332 21.72C166.332 21.72 166.331 21.72 166.331 21.72C166.331 21.72 166.33 21.72 166.33 21.72C166.33 21.72 166.329 21.72 166.329 21.72C166.329 21.72 166.328 21.72 166.328 21.72C166.328 21.72 166.327 21.72 166.327 21.72C166.327 21.72 166.326 21.72 166.326 21.72C166.326 21.72 166.325 21.72 166.325 21.72C166.325 21.72 166.324 21.72 166.324 21.72C166.324 21.72 166.323 21.72 166.323 21.72C166.323 21.72 166.322 21.72 166.322 21.72C166.322 21.72 166.321 21.72 166.321 21.72C166.321 21.72 166.32 21.72 166.32 21.72C166.32 21.72 166.319 21.72 166.319 21.72C166.319 21.72 166.318 21.72 166.318 21.72C166.318 21.72 166.317 21.72 166.317 21.72C166.317 21.72 166.316 21.72 166.316 21.72C166.316 21.72 166.315 21.72 166.315 21.72C166.315 21.72 166.314 21.72 166.314 21.72C166.314 21.72 166.313 21.72 166.313 21.72C166.313 21.72 166.312 21.72 166.312 21.72C166.312 21.72 166.311 21.72 166.311 21.72C166.311 21.72 166.31 21.72 166.31 21.72C166.31 21.72 166.309 21.72 166.309 21.72C166.309 21.72 166.308 21.72 166.308 21.72C166.308 21.72 166.307 21.72 166.307 21.72C166.307 21.72 166.306 21.72 166.306 21.72C166.306 21.72 166.305 21.72 166.305 21.72C166.305 21.72 166.304 21.72 166.304 21.72C166.304 21.72 166.303 21.72 166.303 21.72C166.303 21.72 166.302 21.72 166.302 21.72C166.302 21.72 166.301 21.72 166.301 21.72C166.301 21.72 166.3 21.72 166.3 21.72C166.3 21.72 166.299 21.72 166.299 21.72C166.299 21.72 166.298 21.72 166.298 21.72C166.298 21.72 166.297 21.72 166.297 21.72C166.297 21.72 166.296 21.72 166.296 21.72C166.296 21.72 166.295 21.72 166.295 21.72C166.295 21.72 166.294 21.72 166.294 21.72C166.294 21.72 166.293 21.72 166.293 21.72C166.293 21.72 166.292 21.72 166.292 21.72C166.292 21.72 166.291 21.72 166.291 21.72C166.291 21.72 166.29 21.72 166.29 21.72V23.72C166.29 23.72 166.291 23.72 166.291 23.72C166.291 23.72 166.292 23.72 166.292 23.72C166.292 23.72 166.293 23.72 166.293 23.72C166.293 23.72 166.294 23.72 166.294 23.72C166.294 23.72 166.295 23.72 166.295 23.72C166.295 23.72 166.296 23.72 166.296 23.72C166.296 23.72 166.297 23.72 166.297 23.72C166.297 23.72 166.298 23.72 166.298 23.72C166.298 23.72 166.299 23.72 166.299 23.72C166.299 23.72 166.3 23.72 166.3 23.72C166.3 23.72 166.301 23.72 166.301 23.72C166.301 23.72 166.302 23.72 166.302 23.72C166.302 23.72 166.303 23.72 166.303 23.72C166.303 23.72 166.304 23.72 166.304 23.72C166.304 23.72 166.305 23.72 166.305 23.72C166.305 23.72 166.306 23.72 166.306 23.72C166.306 23.72 166.307 23.72 166.307 23.72C166.307 23.72 166.308 23.72 166.308 23.72C166.308 23.72 166.309 23.72 166.309 23.72C166.309 23.72 166.31 23.72 166.31 23.72C166.31 23.72 166.311 23.72 166.311 23.72C166.311 23.72 166.312 23.72 166.312 23.72C166.312 23.72 166.313 23.72 166.313 23.72C166.313 23.72 166.314 23.72 166.314 23.72C166.314 23.72 166.315 23.72 166.315 23.72C166.315 23.72 166.316 23.72 166.316 23.72C166.316 23.72 166.317 23.72 166.317 23.72C166.317 23.72 166.318 23.72 166.318 23.72C166.318 23.72 166.319 23.72 166.319 23.72C166.319 23.72 166.32 23.72 166.32 23.72C166.32 23.72 166.321 23.72 166.321 23.72C166.321 23.72 166.322 23.72 166.322 23.72C166.322 23.72 166.323 23.72 166.323 23.72C166.323 23.72 166.324 23.72 166.324 23.72C166.324 23.72 166.325 23.72 166.325 23.72C166.325 23.72 166.326 23.72 166.326 23.72C166.326 23.72 166.327 23.72 166.327 23.72C166.327 23.72 166.328 23.72 166.328 23.72C166.328 23.72 166.329 23.72 166.329 23.72C166.329 23.72 166.33 23.72 166.33 23.72C166.33 23.72 166.331 23.72 166.331 23.72C166.331 23.72 166.332 23.72 166.332 23.72C166.332 23.72 166.333 23.72 166.333 23.72C166.333 23.72 166.334 23.72 166.334 23.72C166.334 23.72 166.335 23.72 166.335 23.72C166.335 23.72 166.336 23.72 166.336 23.72C166.336 23.72 166.337 23.72 166.337 23.72C166.337 23.72 166.338 23.72 166.338 23.72C166.338 23.72 166.339 23.72 166.339 23.72C166.339 23.72 166.34 23.72 166.34 23.72C166.34 23.72 166.341 23.72 166.341 23.72C166.341 23.72 166.342 23.72 166.342 23.72C166.342 23.72 166.343 23.72 166.343 23.72C166.343 23.72 166.344 23.72 166.344 23.72C166.344 23.72 166.345 23.72 166.345 23.72C166.345 23.72 166.346 23.72 166.346 23.72C166.346 23.72 166.347 23.72 166.347 23.72C166.347 23.72 166.348 23.72 166.348 23.72C166.348 23.72 166.349 23.72 166.349 23.72C166.349 23.72 166.35 23.72 166.35 23.72C166.35 23.72 166.351 23.72 166.351 23.72C166.351 23.72 166.352 23.72 166.352 23.72C166.352 23.72 166.353 23.72 166.353 23.72C166.353 23.72 166.354 23.72 166.354 23.72C166.354 23.72 166.355 23.72 166.355 23.72C166.355 23.72 166.356 23.72 166.356 23.72C166.356 23.72 166.357 23.72 166.357 23.72C166.357 23.72 166.358 23.72 166.358 23.72C166.358 23.72 166.359 23.72 166.359 23.72C166.359 23.72 166.36 23.72 166.36 23.72C166.36 23.72 166.361 23.72 166.361 23.72C166.361 23.72 166.362 23.72 166.362 23.72C166.362 23.72 166.363 23.72 166.363 23.72C166.363 23.72 166.364 23.72 166.364 23.72C166.364 23.72 166.365 23.72 166.365 23.72C166.365 23.72 166.366 23.72 166.366 23.72C166.366 23.72 166.367 23.72 166.367 23.72C166.367 23.72 166.368 23.72 166.368 23.72C166.368 23.72 166.369 23.72 166.369 23.72C166.369 23.72 166.37 23.72 166.37 23.72C166.37 23.72 166.371 23.72 166.371 23.72C166.371 23.72 166.372 23.72 166.372 23.72C166.372 23.72 166.373 23.72 166.373 23.72C166.373 23.72 166.374 23.72 166.374 23.72C166.374 23.72 166.375 23.72 166.375 23.72C166.375 23.72 166.376 23.72 166.376 23.72C166.376 23.72 166.377 23.72 166.377 23.72C166.377 23.72 166.378 23.72 166.378 23.72C166.378 23.72 166.379 23.72 166.379 23.72C166.379 23.72 166.38 23.72 166.38 23.72C166.38 23.72 166.381 23.72 166.381 23.72C166.381 23.72 166.382 23.72 166.382 23.72C166.382 23.72 166.383 23.72 166.383 23.72C166.383 23.72 166.384 23.72 166.384 23.72C166.384 23.72 166.385 23.72 166.385 23.72C166.385 23.72 166.386 23.72 166.386 23.72C166.386 23.72 166.387 23.72 166.387 23.72C166.387 23.72 166.388 23.72 166.388 23.72C166.388 23.72 166.389 23.72 166.389 23.72C166.389 23.72 166.39 23.72 166.39 23.72C166.39 23.72 166.391 23.72 166.391 23.72C166.391 23.72 166.392 23.72 166.392 23.72C166.392 23.72 166.393 23.72 166.393 23.72C166.393 23.72 166.394 23.72 166.394 23.72C166.394 23.72 166.395 23.72 166.395 23.72C166.395 23.72 166.396 23.72 166.396 23.72C166.396 23.72 166.397 23.72 166.397 23.72C166.397 23.72 166.398 23.72 166.398 23.72C166.398 23.72 166.399 23.72 166.399 23.72C166.399 23.72 166.4 23.72 166.4 23.72C166.4 23.72 166.401 23.72 166.401 23.72C166.401 23.72 166.402 23.72 166.402 23.72C166.402 23.72 166.403 23.72 166.403 23.72C166.403 23.72 166.404 23.72 166.404 23.72C166.404 23.72 166.405 23.72 166.405 23.72C166.405 23.72 166.406 23.72 166.406 23.72C166.406 23.72 166.407 23.72 166.407 23.72C166.407 23.72 166.408 23.72 166.408 23.72C166.408 23.72 166.409 23.72 166.409 23.72C166.409 23.72 166.41 23.72 166.41 23.72C166.41 23.72 166.411 23.72 166.411 23.72C166.411 23.72 166.412 23.72 166.412 23.72C166.412 23.72 166.413 23.72 166.413 23.72C166.413 23.72 166.414 23.72 166.414 23.72C166.414 23.72 166.415 23.72 166.415 23.72C166.415 23.72 166.416 23.72 166.416 23.72C166.416 23.72 166.417 23.72 166.417 23.72C166.417 23.72 166.418 23.72 166.418 23.72C166.418 23.72 166.419 23.72 166.419 23.72C166.419 23.72 166.42 23.72 166.42 23.72C166.42 23.72 166.421 23.72 166.421 23.72C166.421 23.72 166.422 23.72 166.422 23.72C166.422 23.72 166.423 23.72 166.423 23.72C166.423 23.72 166.424 23.72 166.424 23.72C166.424 23.72 166.425 23.72 166.425 23.72C166.425 23.72 166.426 23.72 166.426 23.72C166.426 23.72 166.427 23.72 166.427 23.72C166.427 23.72 166.428 23.72 166.428 23.72C166.428 23.72 166.429 23.72 166.429 23.72C166.429 23.72 166.43 23.72 166.43 23.72C166.43 23.72 166.431 23.72 166.431 23.72C166.431 23.72 166.432 23.72 166.432 23.72C166.432 23.72 166.433 23.72 166.433 23.72C166.433 23.72 166.434 23.72 166.434 23.72C166.434 23.72 166.435 23.72 166.435 23.72C166.435 23.72 166.436 23.72 166.436 23.72C166.436 23.72 166.437 23.72 166.437 23.72C166.437 23.72 166.438 23.72 166.438 23.72C166.438 23.72 166.439 23.72 166.439 23.72C166.439 23.72 166.44 23.72 166.44 23.72C166.44 23.72 166.441 23.72 166.441 23.72C166.441 23.72 166.442 23.72 166.442 23.72C166.442 23.72 166.443 23.72 166.443 23.72C166.443 23.72 166.444 23.72 166.444 23.72C166.444 23.72 166.445 23.72 166.445 23.72C166.445 23.72 166.446 23.72 166.446 23.72C166.446 23.72 166.447 23.72 166.447 23.72C166.447 23.72 166.448 23.72 166.448 23.72C166.448 23.72 166.449 23.72 166.449 23.72C166.449 23.72 166.45 23.72 166.45 23.72C166.45 23.72 166.451 23.72 166.451 23.72C166.451 23.72 166.452 23.72 166.452 23.72C166.452 23.72 166.453 23.72 166.453 23.72C166.453 23.72 166.454 23.72 166.454 23.72C166.454 23.72 166.455 23.72 166.455 23.72C166.455 23.72 166.456 23.72 166.456 23.72C166.456 23.72 166.457 23.72 166.457 23.72C166.457 23.72 166.458 23.72 166.458 23.72C166.458 23.72 166.459 23.72 166.459 23.72C166.459 23.72 166.46 23.72 166.46 23.72C166.46 23.72 166.461 23.72 166.461 23.72C166.461 23.72 166.462 23.72 166.462 23.72C166.462 23.72 166.463 23.72 166.463 23.72C166.463 23.72 166.464 23.72 166.464 23.72C166.464 23.72 166.465 23.72 166.465 23.72C166.465 23.72 166.466 23.72 166.466 23.72C166.466 23.72 166.467 23.72 166.467 23.72C166.467 23.72 166.468 23.72 166.468 23.72C166.468 23.72 166.469 23.72 166.469 23.72C166.469 23.72 166.47 23.72 166.47 23.72C166.47 23.72 166.471 23.72 166.471 23.72C166.471 23.72 166.472 23.72 166.472 23.72C166.472 23.72 166.473 23.72 166.473 23.72C166.473 23.72 166.474 23.72 166.474 23.72C166.474 23.72 166.475 23.72 166.475 23.72C166.475 23.72 166.476 23.72 166.476 23.72C166.476 23.72 166.477 23.72 166.477 23.72C166.477 23.72 166.478 23.72 166.478 23.72C166.478 23.72 166.479 23.72 166.479 23.72C166.479 23.72 166.48 23.72 166.48 23.72C166.48 23.72 166.481 23.72 166.481 23.72C166.481 23.72 166.482 23.72 166.482 23.72C166.482 23.72 166.483 23.72 166.483 23.72C166.483 23.72 166.484 23.72 166.484 23.72C166.484 23.72 166.485 23.72 166.485 23.72C166.485 23.72 166.486 23.72 166.486 23.72C166.486 23.72 166.487 23.72 166.487 23.72C166.487 23.72 166.488 23.72 166.488 23.72C166.488 23.72 166.489 23.72 166.489 23.72C166.489 23.72 166.49 23.72 166.49 23.72C166.49 23.72 166.491 23.72 166.491 23.72C166.491 23.72 166.492 23.72 166.492 23.72C166.492 23.72 166.493 23.72 166.493 23.72C166.493 23.72 166.494 23.72 166.494 23.72C166.494 23.72 166.495 23.72 166.495 23.72C166.495 23.72 166.496 23.72 166.496 23.72C166.496 23.72 166.497 23.72 166.497 23.72C166.497 23.72 166.498 23.72 166.498 23.72C166.498 23.72 166.499 23.72 166.499 23.72C166.499 23.72 166.5 23.72 166.5 23.72C166.5 23.72 166.501 23.72 166.501 23.72C166.501 23.72 166.502 23.72 166.502 23.72C166.502 23.72 166.503 23.72 166.503 23.72C166.503 23.72 166.504 23.72 166.504 23.72C166.504 23.72 166.505 23.72 166.505 23.72C166.505 23.72 166.506 23.72 166.506 23.72C166.506 23.72 166.507 23.72 166.507 23.72C166.507 23.72 166.508 23.72 166.508 23.72C166.508 23.72 166.509 23.72 166.509 23.72C166.509 23.72 166.51 23.72 166.51 23.72C166.51 23.72 166.511 23.72 166.511 23.72C166.511 23.72 166.512 23.72 166.512 23.72C166.512 23.72 166.513 23.72 166.513 23.72C166.513 23.72 166.514 23.72 166.514 23.72C166.514 23.72 166.515 23.72 166.515 23.72C166.515 23.72 166.516 23.72 166.516 23.72C166.516 23.72 166.517 23.72 166.517 23.72C166.517 23.72 166.518 23.72 166.518 23.72C166.518 23.72 166.519 23.72 166.519 23.72C166.519 23.72 166.52 23.72 166.52 23.72C166.52 23.72 166.521 23.72 166.521 23.72C166.521 23.72 166.522 23.72 166.522 23.72C166.522 23.72 166.523 23.72 166.523 23.72C166.523 23.72 166.524 23.72 166.524 23.72C166.524 23.72 166.525 23.72 166.525 23.72C166.525 23.72 166.526 23.72 166.526 23.72C166.526 23.72 166.527 23.72 166.527 23.72C166.527 23.72 166.528 23.72 166.528 23.72C166.528 23.72 166.529 23.72 166.529 23.72C166.529 23.72 166.53 23.72 166.53 23.72C166.53 23.72 166.531 23.72 166.531 23.72C166.531 23.72 166.532 23.72 166.532 23.72C166.532 23.72 166.533 23.72 166.533 23.72C166.533 23.72 166.534 23.72 166.534 23.72C166.534 23.72 166.535 23.72 166.535 23.72C166.535 23.72 166.536 23.72 166.536 23.72C166.536 23.72 166.537 23.72 166.537 23.72C166.537 23.72 166.538 23.72 166.538 23.72C166.538 23.72 166.539 23.72 166.539 23.72C166.539 23.72 166.54 23.72 166.54 23.72C166.54 23.72 166.541 23.72 166.541 23.72C166.541 23.72 166.542 23.72 166.542 23.72C166.542 23.72 166.543 23.72 166.543 23.72C166.543 23.72 166.544 23.72 166.544 23.72C166.544 23.72 166.545 23.72 166.545 23.72C166.545 23.72 166.546 23.72 166.546 23.72C166.546 23.72 166.547 23.72 166.547 23.72C166.547 23.72 166.548 23.72 166.548 23.72C166.548 23.72 166.549 23.72 166.549 23.72C166.549 23.72 166.55 23.72 166.55 23.72C166.55 23.72 166.551 23.72 166.551 23.72C166.551 23.72 166.552 23.72 166.552 23.72C166.552 23.72 166.553 23.72 166.553 23.72C166.553 23.72 166.554 23.72 166.554 23.72C166.554 23.72 166.555 23.72 166.555 23.72C166.555 23.72 166.556 23.72 166.556 23.72C166.556 23.72 166.557 23.72 166.557 23.72C166.557 23.72 166.558 23.72 166.558 23.72C166.558 23.72 166.559 23.72 166.559 23.72C166.559 23.72 166.56 23.72 166.56 23.72C166.56 23.72 166.561 23.72 166.561 23.72C166.561 23.72 166.562 23.72 166.562 23.72C166.562 23.72 166.563 23.72 166.563 23.72C166.563 23.72 166.564 23.72 166.564 23.72C166.564 23.72 166.565 23.72 166.565 23.72C166.565 23.72 166.566 23.72 166.566 23.72C166.566 23.72 166.567 23.72 166.567 23.72C166.567 23.72 166.568 23.72 166.568 23.72C166.568 23.72 166.569 23.72 166.569 23.72C166.569 23.72 166.57 23.72 166.57 23.72C166.57 23.72 166.571 23.72 166.571 23.72C166.571 23.72 166.572 23.72 166.572 23.72C166.572 23.72 166.573 23.72 166.573 23.72C166.573 23.72 166.574 23.72 166.574 23.72C166.574 23.72 166.575 23.72 166.575 23.72C166.575 23.72 166.576 23.72 166.576 23.72C166.576 23.72 166.577 23.72 166.577 23.72C166.577 23.72 166.578 23.72 166.578 23.72C166.578 23.72 166.579 23.72 166.579 23.72C166.579 23.72 166.58 23.72 166.58 23.72C166.58 23.72 166.581 23.72 166.581 23.72C166.581 23.72 166.582 23.72 166.582 23.72C166.582 23.72 166.583 23.72 166.583 23.72C166.583 23.72 166.584 23.72 166.584 23.72C166.584 23.72 166.585 23.72 166.585 23.72C166.585 23.72 166.586 23.72 166.586 23.72C166.586 23.72 166.587 23.72 166.587 23.72C166.587 23.72 166.588 23.72 166.588 23.72C166.588 23.72 166.589 23.72 166.589 23.72C166.589 23.72 166.59 23.72 166.59 23.72C166.59 23.72 166.591 23.72 166.591 23.72C166.591 23.72 166.592 23.72 166.592 23.72C166.592 23.72 166.593 23.72 166.593 23.72C166.593 23.72 166.594 23.72 166.594 23.72C166.594 23.72 166.595 23.72 166.595 23.72C166.595 23.72 166.596 23.72 166.596 23.72C166.596 23.72 166.597 23.72 166.597 23.72C166.597 23.72 166.598 23.72 166.598 23.72C166.598 23.72 166.599 23.72 166.599 23.72C166.599 23.72 166.6 23.72 166.6 23.72C166.6 23.72 166.601 23.72 166.601 23.72C166.601 23.72 166.602 23.72 166.602 23.72C166.602 23.72 166.603 23.72 166.603 23.72C166.603 23.72 166.604 23.72 166.604 23.72C166.604 23.72 166.605 23.72 166.605 23.72C166.605 23.72 166.606 23.72 166.606 23.72C166.606 23.72 166.607 23.72 166.607 23.72C166.607 23.72 166.608 23.72 166.608 23.72C166.608 23.72 166.609 23.72 166.609 23.72C166.609 23.72 166.61 23.72 166.61 23.72C166.61 23.72 166.611 23.72 166.611 23.72C166.611 23.72 166.612 23.72 166.612 23.72C166.612 23.72 166.613 23.72 166.613 23.72C166.613 23.72 166.614 23.72 166.614 23.72C166.614 23.72 166.615 23.72 166.615 23.72C166.615 23.72 166.616 23.72 166.616 23.72C166.616 23.72 166.617 23.72 166.617 23.72C166.617 23.72 166.618 23.72 166.618 23.72C166.618 23.72 166.619 23.72 166.619 23.72C166.619 23.72 166.62 23.72 166.62 23.72C166.62 23.72 166.621 23.72 166.621 23.72C166.621 23.72 166.622 23.72 166.622 23.72C166.622 23.72 166.623 23.72 166.623 23.72C166.623 23.72 166.624 23.72 166.624 23.72C166.624 23.72 166.625 23.72 166.625 23.72C166.625 23.72 166.626 23.72 166.626 23.72C166.626 23.72 166.627 23.72 166.627 23.72C166.627 23.72 166.628 23.72 166.628 23.72C166.628 23.72 166.629 23.72 166.629 23.72C166.629 23.72 166.63 23.72 166.63 23.72C166.63 23.72 166.631 23.72 166.631 23.72C166.631 23.72 166.632 23.72 166.632 23.72C166.632 23.72 166.633 23.72 166.633 23.72C166.633 23.72 166.634 23.72 166.634 23.72C166.634 23.72 166.635 23.72 166.635 23.72C166.635 23.72 166.636 23.72 166.636 23.72C166.636 23.72 166.637 23.72 166.637 23.72C166.637 23.72 166.638 23.72 166.638 23.72C166.638 23.72 166.639 23.72 166.639 23.72C166.639 23.72 166.64 23.72 166.64 23.72C166.64 23.72 166.641 23.72 166.641 23.72C166.641 23.72 166.642 23.72 166.642 23.72C166.642 23.72 166.643 23.72 166.643 23.72C166.643 23.72 166.644 23.72 166.644 23.72C166.644 23.72 166.645 23.72 166.645 23.72C166.645 23.72 166.646 23.72 166.646 23.72C166.646 23.72 166.647 23.72 166.647 23.72C166.647 23.72 166.648 23.72 166.648 23.72C166.648 23.72 166.649 23.72 166.649 23.72C166.649 23.72 166.65 23.72 166.65 23.72C166.65 23.72 166.651 23.72 166.651 23.72C166.651 23.72 166.652 23.72 166.652 23.72C166.652 23.72 166.653 23.72 166.653 23.72C166.653 23.72 166.654 23.72 166.654 23.72C166.654 23.72 166.655 23.72 166.655 23.72C166.655 23.72 166.656 23.72 166.656 23.72C166.656 23.72 166.657 23.72 166.657 23.72C166.657 23.72 166.658 23.72 166.658 23.72C166.658 23.72 166.659 23.72 166.659 23.72C166.659 23.72 166.66 23.72 166.66 23.72C166.66 23.72 166.661 23.72 166.661 23.72C166.661 23.72 166.662 23.72 166.662 23.72C166.662 23.72 166.663 23.72 166.663 23.72C166.663 23.72 166.664 23.72 166.664 23.72C166.664 23.72 166.665 23.72 166.665 23.72C166.665 23.72 166.666 23.72 166.666 23.72C166.666 23.72 166.667 23.72 166.667 23.72C166.667 23.72 166.668 23.72 166.668 23.72C166.668 23.72 166.669 23.72 166.669 23.72C166.669 23.72 166.67 23.72 166.67 23.72C166.67 23.72 166.671 23.72 166.671 23.72C166.671 23.72 166.672 23.72 166.672 23.72C166.672 23.72 166.673 23.72 166.673 23.72C166.673 23.72 166.674 23.72 166.674 23.72C166.674 23.72 166.675 23.72 166.675 23.72C166.675 23.72 166.676 23.72 166.676 23.72C166.676 23.72 166.677 23.72 166.677 23.72C166.677 23.72 166.678 23.72 166.678 23.72C166.678 23.72 166.679 23.72 166.679 23.72C166.679 23.72 166.68 23.72 166.68 23.72C166.68 23.72 166.681 23.72 166.681 23.72C166.681 23.72 166.682 23.72 166.682 23.72C166.682 23.72 166.683 23.72 166.683 23.72C166.683 23.72 166.684 23.72 166.684 23.72C166.684 23.72 166.685 23.72 166.685 23.72C166.685 23.72 166.686 23.72 166.686 23.72C166.686 23.72 166.687 23.72 166.687 23.72C166.687 23.72 166.688 23.72 166.688 23.72C166.688 23.72 166.689 23.72 166.689 23.72C166.689 23.72 166.69 23.72 166.69 23.72C166.69 23.72 166.691 23.72 166.691 23.72C166.691 23.72 166.692 23.72 166.692 23.72C166.692 23.72 166.693 23.72 166.693 23.72C166.693 23.72 166.694 23.72 166.694 23.72C166.694 23.72 166.695 23.72 166.695 23.72C166.695 23.72 166.696 23.72 166.696 23.72C166.696 23.72 166.697 23.72 166.697 23.72C166.697 23.72 166.698 23.72 166.698 23.72C166.698 23.72 166.699 23.72 166.699 23.72C166.699 23.72 166.7 23.72 166.7 23.72C166.7 23.72 166.701 23.72 166.701 23.72C166.701 23.72 166.702 23.72 166.702 23.72C166.702 23.72 166.703 23.72 166.703 23.72C166.703 23.72 166.704 23.72 166.704 23.72C166.704 23.72 166.705 23.72 166.705 23.72C166.705 23.72 166.706 23.72 166.706 23.72C166.706 23.72 166.707 23.72 166.707 23.72C166.707 23.72 166.708 23.72 166.708 23.72C166.708 23.72 166.709 23.72 166.709 23.72C166.709 23.72 166.71 23.72 166.71 23.72C166.71 23.72 166.711 23.72 166.711 23.72C166.711 23.72 166.712 23.72 166.712 23.72C166.712 23.72 166.713 23.72 166.713 23.72C166.713 23.72 166.714 23.72 166.714 23.72C166.714 23.72 166.715 23.72 166.715 23.72C166.715 23.72 166.716 23.72 166.716 23.72C166.716 23.72 166.717 23.72 166.717 23.72C166.717 23.72 166.718 23.72 166.718 23.72C166.718 23.72 166.719 23.72 166.719 23.72C166.719 23.72 166.72 23.72 166.72 23.72C166.72 23.72 166.721 23.72 166.721 23.72C166.721 23.72 166.722 23.72 166.722 23.72C166.722 23.72 166.723 23.72 166.723 23.72C166.723 23.72 166.724 23.72 166.724 23.72C166.724 23.72 166.725 23.72 166.725 23.72C166.725 23.72 166.726 23.72 166.726 23.72C166.726 23.72 166.727 23.72 166.727 23.72C166.727 23.72 166.728 23.72 166.728 23.72C166.728 23.72 166.729 23.72 166.729 23.72C166.729 23.72 166.73 23.72 166.73 23.72C166.73 23.72 166.731 23.72 166.731 23.72C166.731 23.72 166.732 23.72 166.732 23.72C166.732 23.72 166.733 23.72 166.733 23.72C166.733 23.72 166.734 23.72 166.734 23.72C166.734 23.72 166.735 23.72 166.735 23.72C166.735 23.72 166.736 23.72 166.736 23.72C166.736 23.72 166.737 23.72 166.737 23.72C166.737 23.72 166.738 23.72 166.738 23.72C166.738 23.72 166.739 23.72 166.739 23.72C166.739 23.72 166.74 23.72 166.74 23.72C166.74 23.72 166.741 23.72 166.741 23.72C166.741 23.72 166.742 23.72 166.742 23.72C166.742 23.72 166.743 23.72 166.743 23.72C166.743 23.72 166.744 23.72 166.744 23.72C166.744 23.72 166.745 23.72 166.745 23.72C166.745 23.72 166.746 23.72 166.746 23.72C166.746 23.72 166.747 23.72 166.747 23.72C166.747 23.72 166.748 23.72 166.748 23.72C166.748 23.72 166.749 23.72 166.749 23.72C166.749 23.72 166.75 23.72 166.75 23.72C166.75 23.72 166.751 23.72 166.751 23.72C166.751 23.72 166.752 23.72 166.752 23.72C166.752 23.72 166.753 23.72 166.753 23.72C166.753 23.72 166.754 23.72 166.754 23.72C166.754 23.72 166.755 23.72 166.755 23.72C166.755 23.72 166.756 23.72 166.756 23.72C166.756 23.72 166.757 23.72 166.757 23.72C166.757 23.72 166.758 23.72 166.758 23.72C166.758 23.72 166.759 23.72 166.759 23.72C166.759 23.72 166.76 23.72 166.76 23.72C166.76 23.72 166.761 23.72 166.761 23.72C166.761 23.72 166.762 23.72 166.762 23.72C166.762 23.72 166.763 23.72 166.763 23.72C166.763 23.72 166.764 23.72 166.764 23.72C166.764 23.72 166.765 23.72 166.765 23.72C166.765 23.72 166.766 23.72 166.766 23.72C166.766 23.72 166.767 23.72 166.767 23.72C166.767 23.72 166.768 23.72 166.768 23.72C166.768 23.72 166.769 23.72 166.769 23.72C166.769 23.72 166.77 23.72 166.77 23.72C166.77 23.72 166.771 23.72 166.771 23.72C166.771 23.72 166.772 23.72 166.772 23.72C166.772 23.72 166.773 23.72 166.773 23.72C166.773 23.72 166.774 23.72 166.774 23.72C166.774 23.72 166.775 23.72 166.775 23.72C166.775 23.72 166.776 23.72 166.776 23.72C166.776 23.72 166.777 23.72 166.777 23.72C166.777 23.72 166.778 23.72 166.778 23.72C166.778 23.72 166.779 23.72 166.779 23.72C166.779 23.72 166.78 23.72 166.78 23.72C166.78 23.72 166.781 23.72 166.781 23.72C166.781 23.72 166.782 23.72 166.782 23.72C166.782 23.72 166.783 23.72 166.783 23.72C166.783 23.72 166.784 23.72 166.784 23.72C166.784 23.72 166.785 23.72 166.785 23.72C166.785 23.72 166.786 23.72 166.786 23.72C166.786 23.72 166.787 23.72 166.787 23.72C166.787 23.72 166.788 23.72 166.788 23.72C166.788 23.72 166.789 23.72 166.789 23.72C166.789 23.72 166.79 23.72 166.79 23.72C166.79 23.72 166.791 23.72 166.791 23.72C166.791 23.72 166.792 23.72 166.792 23.72C166.792 23.72 166.793 23.72 166.793 23.72C166.793 23.72 166.794 23.72 166.794 23.72C166.794 23.72 166.795 23.72 166.795 23.72C166.795 23.72 166.796 23.72 166.796 23.72C166.796 23.72 166.797 23.72 166.797 23.72C166.797 23.72 166.798 23.72 166.798 23.72C166.798 23.72 166.799 23.72 166.799 23.72C166.799 23.72 166.8 23.72 166.8 23.72C166.8 23.72 166.801 23.72 166.801 23.72C166.801 23.72 166.802 23.72 166.802 23.72V21.72ZM166.29 21.72C163.787 21.72 161.656 22.3131 159.986 23.5896L161.201 25.1784C162.433 24.2362 164.1 23.72 166.29 23.72V21.72ZM160.001 23.5783C158.296 24.8324 157.418 26.5601 157.418 28.672H159.418C159.418 27.1999 159.99 26.069 161.186 25.1897L160.001 23.5783ZM157.418 28.672C157.418 29.6163 157.558 30.4757 157.894 31.2031L159.71 30.3649C159.534 29.983 159.418 29.4344 159.418 28.672H157.418ZM158.202 29.984L157.69 30.368L158.89 31.968L159.402 31.584L158.202 29.984ZM159.027 30.4923C158.817 30.2632 158.586 29.7083 158.586 28.544H156.586C156.586 29.8543 156.824 31.0488 157.553 31.8437L159.027 30.4923ZM158.586 28.544C158.586 27.5189 158.938 26.5413 159.708 25.5883L158.152 24.3317C157.13 25.5974 156.586 27.0091 156.586 28.544H158.586ZM159.719 25.5739C160.482 24.5927 161.45 23.9478 162.649 23.6208L162.123 21.6912C160.506 22.1322 159.169 23.0233 158.14 24.3461L159.719 25.5739ZM162.603 23.6322C162.952 23.5545 163.415 23.4734 163.999 23.3899L163.716 21.41C163.106 21.4973 162.587 21.5868 162.169 21.6798L162.603 23.6322ZM164.858 22.4V22.272H162.858V22.4H164.858ZM163.814 21.2729L162.342 21.3369L162.429 23.3351L163.901 23.2711L163.814 21.2729ZM162.51 21.3437C158.526 20.8457 155.366 19.7342 152.975 18.0608L151.828 19.6992C154.558 21.6098 158.054 22.8023 162.262 23.3283L162.51 21.3437ZM152.984 18.0672C150.711 16.438 149.562 14.1305 149.562 11.008H147.562C147.562 14.7122 148.973 17.6527 151.819 19.6928L152.984 18.0672ZM148.645 12.0045L149.413 11.9405L149.247 9.94745L148.479 10.0114L148.645 12.0045ZM148.33 10.944C148.33 13.0814 148.867 14.9887 149.974 16.6243L151.63 15.5037C150.774 14.238 150.33 12.7319 150.33 10.944H148.33ZM149.981 16.6358C151.072 18.2005 152.557 19.4177 154.405 20.2953L155.263 18.4887C153.697 17.7449 152.494 16.7435 151.622 15.4922L149.981 16.6358ZM154.406 20.2957C157.796 21.9016 161.774 22.7766 166.315 22.9513L166.392 20.9527C162.059 20.7861 158.357 19.9544 155.262 18.4883L154.406 20.2957ZM166.307 22.9509L177.315 23.4629L177.408 21.4651L166.4 20.9531L166.307 22.9509ZM176.362 22.464V57.152H178.362V22.464H176.362ZM176.362 57.152C176.362 59.6193 175.904 61.2886 175.147 62.3206L176.76 63.5034C177.881 61.9754 178.362 59.8047 178.362 57.152H176.362ZM175.157 62.3076C174.483 63.1969 173.252 63.768 171.154 63.768V65.768C173.579 65.768 175.548 65.1017 176.751 63.5164L175.157 62.3076ZM171.154 63.768C170.068 63.768 169.223 63.6463 168.59 63.4353L167.958 65.3327C168.861 65.6337 169.936 65.768 171.154 65.768V63.768ZM169.254 64.5801L169.382 63.9401L167.421 63.5479L167.293 64.1879L169.254 64.5801ZM168.18 64.7191C169.174 64.945 170.103 65.064 170.962 65.064V63.064C170.284 63.064 169.507 62.9696 168.623 62.7689L168.18 64.7191ZM170.962 65.064C173.227 65.064 175.092 64.4771 176.136 62.9692L174.492 61.8308C174 62.5416 172.963 63.064 170.962 63.064V65.064ZM176.136 62.9692C177.079 61.607 177.466 59.607 177.466 57.152H175.466C175.466 59.4757 175.085 60.9743 174.492 61.8308L176.136 62.9692ZM177.466 57.152V47.808H175.466V57.152H177.466ZM166.284 47.976L176.46 48.04L176.472 46.04L166.296 45.976L166.284 47.976ZM177.466 47.04V23.168H175.466V47.04H177.466ZM176.513 22.1691L169.665 21.8491L169.571 23.8469L176.419 24.1669L176.513 22.1691ZM168.651 22.5916L162.251 46.7196L164.184 47.2324L170.584 23.1044L168.651 22.5916ZM163.218 47.976H166.29V45.976H163.218V47.976ZM144.874 57.408C144.874 59.5186 145.554 61.347 146.935 62.8263L148.397 61.4617C147.388 60.381 146.874 59.0521 146.874 57.408H144.874ZM146.935 62.8263C148.329 64.3196 150.113 65.064 152.21 65.064V63.064C150.637 63.064 149.392 62.5284 148.397 61.4617L146.935 62.8263ZM152.21 65.064C153.869 65.064 155.357 64.6215 156.632 63.7092C157.897 62.8034 158.892 61.478 159.649 59.8039L157.827 58.9801C157.175 60.4207 156.378 61.4313 155.468 62.0828C154.567 62.7278 153.495 63.064 152.21 63.064V65.064ZM159.653 59.794C160.451 57.977 161.13 55.8691 161.695 53.478L159.749 53.018C159.204 55.3202 158.561 57.3083 157.822 58.99L159.653 59.794ZM161.688 53.5064L163.16 48.0024L161.228 47.4856L159.756 52.9896L161.688 53.5064ZM162.186 46.744C156.681 46.7872 152.39 47.6194 149.444 49.3635C146.418 51.1555 144.874 53.8784 144.874 57.408H146.874C146.874 54.5802 148.049 52.5139 150.463 51.0845C152.958 49.6073 156.827 48.7861 162.202 48.744L162.186 46.744ZM180.026 57.152V25.28H178.026V57.152H180.026ZM180.026 25.28C180.026 22.8087 180.485 21.1711 181.231 20.1884L179.637 18.9796C178.505 20.4716 178.026 22.6313 178.026 25.28H180.026ZM181.24 20.1754C181.919 19.2495 183.147 18.664 185.234 18.664V16.664C182.798 16.664 180.826 17.3585 179.627 18.9926L181.24 20.1754ZM185.234 18.664C186.32 18.664 187.165 18.7857 187.798 18.9967L188.43 17.0993C187.527 16.7983 186.452 16.664 185.234 16.664V18.664ZM187.133 17.8519L187.005 18.4919L188.966 18.8841L189.094 18.2441L187.133 17.8519ZM188.207 17.7129C187.214 17.487 186.284 17.368 185.426 17.368V19.368C186.103 19.368 186.881 19.4624 187.764 19.6631L188.207 17.7129ZM185.426 17.368C183.16 17.368 181.296 17.9549 180.252 19.4628L181.896 20.6012C182.388 19.8904 183.425 19.368 185.426 19.368V17.368ZM180.252 19.4628C179.309 20.825 178.922 22.825 178.922 25.28H180.922C180.922 22.9563 181.303 21.4577 181.896 20.6012L180.252 19.4628ZM178.922 25.28V57.152H180.922V25.28H178.922ZM178.922 57.152C178.922 59.607 179.309 61.607 180.252 62.9692L181.896 61.8308C181.303 60.9743 180.922 59.4757 180.922 57.152H178.922ZM180.252 62.9692C181.296 64.4771 183.161 65.064 185.426 65.064V63.064C183.425 63.064 182.388 62.5416 181.896 61.8308L180.252 62.9692ZM185.426 65.064C186.284 65.064 187.214 64.945 188.207 64.7191L187.764 62.7689C186.881 62.9696 186.103 63.064 185.426 63.064V65.064ZM187.005 63.9401L187.133 64.5801L189.094 64.1879L188.966 63.5479L187.005 63.9401ZM187.798 63.4353C187.165 63.6463 186.32 63.768 185.234 63.768V65.768C186.452 65.768 187.527 65.6337 188.43 65.3327L187.798 63.4353ZM185.234 63.768C183.136 63.768 181.905 63.1969 181.231 62.3076L179.637 63.5164C180.84 65.1017 182.809 65.768 185.234 65.768V63.768ZM181.24 62.3206C180.483 61.2886 180.026 59.6193 180.026 57.152H178.026C178.026 59.8047 178.507 61.9754 179.627 63.5034L181.24 62.3206Z" fill="#FF4B4B"/>
</svg>
